<svg width="850" height="1001" viewBox="0 0 850 1001" fill="none" xmlns="http://www.w3.org/2000/svg">
<g id="logoDarkStroke">
<path id="bottom" d="M85 306.909C85 292.051 100.33 282.271 113.603 288.662L416.385 434.462C421.834 437.087 428.164 437.083 433.611 434.452L735.377 288.713C748.651 282.302 764 292.082 764 306.95V600.639C764 608.461 759.535 615.58 752.536 618.918L433.524 771.085C428.126 773.66 421.872 773.664 416.471 771.095L96.4841 618.912C89.4742 615.578 85 608.453 85 600.623V306.909Z" fill="#F9A825"/>
<path id="top" d="M416.592 94.3865C421.925 91.8888 428.075 91.8888 433.409 94.3865L700.172 219.312C715.571 226.524 715.643 248.622 700.29 255.935L433.527 383.007C428.127 385.579 421.873 385.579 416.473 383.007L149.71 255.935C134.358 248.622 134.429 226.524 149.829 219.312L416.592 94.3865Z" fill="#FF6F00"/>
<path id="border" fill-rule="evenodd" clip-rule="evenodd" d="M804.258 219.993L429.258 41.6468C426.561 40.3643 423.439 40.3642 420.742 41.6468L45.742 219.993C42.2371 221.66 40 225.223 40 229.138V771.381C40 775.296 42.2371 778.859 45.7421 780.526L420.742 958.872C423.439 960.155 426.561 960.155 429.258 958.872L804.258 780.526C807.763 778.859 810 775.296 810 771.381V229.138C810 225.223 807.763 221.66 804.258 219.993ZM446.29 5.0693C432.806 -1.34358 417.194 -1.34357 403.71 5.06931L28.7101 183.416C11.1855 191.751 0 209.564 0 229.138V771.381C0 790.955 11.1856 808.769 28.7102 817.103L403.71 995.45C417.194 1001.86 432.806 1001.86 446.29 995.45L821.29 817.103C838.815 808.769 850 790.955 850 771.381V229.138C850 209.564 838.815 191.751 821.29 183.416L446.29 5.0693Z" fill="#E0E0E0"/>
</g>
</svg>
